<?xml version="1.0" encoding="UTF-8"?>
<svg width="160" height="160" version="1.1" viewBox="0 0 381 42.333" xmlns="http://www.w3.org/2000/svg" xmlns:cc="http://creativecommons.org/ns#" xmlns:dc="http://purl.org/dc/elements/1.1/" xmlns:rdf="http://www.w3.org/1999/02/22-rdf-syntax-ns#">
<metadata>
<rdf:RDF>
<cc:Work rdf:about="">
<dc:format>image/svg+xml</dc:format>
<dc:type rdf:resource="http://purl.org/dc/dcmitype/StillImage"/>
<dc:title/>
</cc:Work>
</rdf:RDF>
</metadata>
<g transform="translate(3238.5 443.83)">
<g xmlns="http://www.w3.org/2000/svg" id="g900" transform="matrix(0.08571612,0,0,0.08571612,-2875.8245,-432.35925)">
      <path id="rect4573" d="m 76.69865,67.299299 c -82.989947,9.147172 -52.971752,29.324499 -204.12975,35.300271 -7.65135,36.02818 2.8995,74.48943 30.167813,101.83922 0.0028,0.003 0.0057,0.005 0.0085,0.009 l 0.0085,0.009 c 20.919847,20.91084 49.26682,32.64848 78.846245,32.64848 29.587527,1e-5 57.943942,-11.74386 78.865449,-32.66542 20.921558,-20.9215 32.667648,-49.27789 32.667671,-78.86545 0,-20.74258 -5.774029,-40.879722 -16.434374,-58.274613 z" style="opacity:1;vector-effect:none;fill:#2345ff;fill-opacity:1;stroke:none;stroke-width:34.32793808;stroke-linecap:round;stroke-linejoin:round;stroke-miterlimit:4;stroke-dasharray:none;stroke-dashoffset:0;stroke-opacity:1;paint-order:normal" xmlns:inkscape="http://www.inkscape.org/namespaces/inkscape" inkscape:connector-curvature="0"/>
      <path xmlns:sodipodi="http://sodipodi.sourceforge.net/DTD/sodipodi-0.dtd" sodipodi:nodetypes="cccccscscccccc" xmlns:inkscape="http://www.inkscape.org/namespaces/inkscape" inkscape:connector-curvature="0" id="path4566" d="m -167.76935,32.320437 22.31727,22.31727 8.33348,-8.33349 17.55555,17.55555 c -29.94649,47.322923 -23.12874,109.075623 16.41995,148.725993 22.476224,22.47629 52.960564,35.10335 84.74678,35.10335 31.78624,1e-5 62.27057,-12.62705 84.74679,-35.10334 22.47629,-22.47622 35.10332,-52.96056 35.10334,-84.7468 0,-31.786213 -12.62706,-62.270553 -35.10335,-84.746773 C 26.70342,3.513367 -35.0724,-3.320153 -82.411326,26.636437 l -17.51974,-17.51975 8.33348,-8.33348 -22.317264,-22.31727 z" style="opacity:1;vector-effect:none;fill:none;fill-opacity:1;stroke:#000000;stroke-width:23.28333282;stroke-linecap:round;stroke-linejoin:round;stroke-miterlimit:4;stroke-dasharray:none;stroke-dashoffset:0;stroke-opacity:1;paint-order:stroke fill markers"/>
    </g>
</g>
</svg>
