<svg xmlns:dc="http://purl.org/dc/elements/1.1/" xmlns:cc="http://creativecommons.org/ns#" xmlns:rdf="http://www.w3.org/1999/02/22-rdf-syntax-ns#" xmlns:svg="http://www.w3.org/2000/svg" xmlns="http://www.w3.org/2000/svg" xmlns:sodipodi="http://sodipodi.sourceforge.net/DTD/sodipodi-0.dtd" xmlns:inkscape="http://www.inkscape.org/namespaces/inkscape" width="1440" height="159.99997" viewBox="0 0 381.00001 42.333324" version="1.1" id="svg8" sodipodi:docname="RPG Icons.svg" inkscape:version="0.92.2 (5c3e80d, 2017-08-06)" inkscape:export-filename="D:\Pictures\RPG Icons.png" inkscape:export-xdpi="19.200001" inkscape:export-ydpi="19.200001">
  <defs id="defs2"/>
  <sodipodi:namedview id="base" pagecolor="#ffffff" bordercolor="#666666" borderopacity="1.0" inkscape:pageopacity="0" inkscape:pageshadow="2" inkscape:zoom="0.5" inkscape:cx="1118.3778" inkscape:cy="86.674156" inkscape:document-units="px" inkscape:current-layer="layer1" showgrid="true" units="px" showborder="false" inkscape:pagecheckerboard="false" inkscape:window-width="1920" inkscape:window-height="1017" inkscape:window-x="1912" inkscape:window-y="-8" inkscape:window-maximized="1" inkscape:snap-bbox="true" inkscape:bbox-paths="true" inkscape:bbox-nodes="true" inkscape:snap-bbox-edge-midpoints="true" inkscape:snap-bbox-midpoints="true" inkscape:object-paths="true" inkscape:snap-intersection-paths="true" inkscape:snap-smooth-nodes="true" inkscape:snap-midpoints="true" inkscape:snap-object-midpoints="true" inkscape:snap-center="true" inkscape:snap-text-baseline="true" inkscape:snap-global="true" inkscape:snap-nodes="true">
    <inkscape:grid type="xygrid" id="grid1297" spacingx="4.2333333" spacingy="4.2333333" empcolor="#ff3f3f" empopacity="0.83137255" originx="3238.5001" originy="-698.49999"/>
  </sodipodi:namedview>
  <metadata id="metadata5">
    <rdf:RDF>
      <cc:Work rdf:about="">
        <dc:format>image/svg+xml</dc:format>
        <dc:type rdf:resource="http://purl.org/dc/dcmitype/StillImage"/>
        <dc:title/>
      </cc:Work>
    </rdf:RDF>
  </metadata>
  <g inkscape:label="Layer 1" inkscape:groupmode="layer" id="layer1" transform="translate(3238.5,443.83332)">
    <g id="redpotion-icon" transform="matrix(0.08571612,0,0,0.08571612,-2883.3253,-432.34345)">
      <path id="rect4501" d="m -397.45977,107.20443 c -49.61826,3.18522 -52.87748,13.96779 -91.84825,17.54343 l -40.70209,92.61037 h 90.48074 90.48193 z" style="opacity:1;vector-effect:none;fill:#df0028;fill-opacity:1;stroke:none;stroke-width:41.94445419;stroke-linecap:round;stroke-linejoin:round;stroke-miterlimit:4;stroke-dasharray:none;stroke-dashoffset:0;stroke-opacity:1;paint-order:normal" inkscape:connector-curvature="0"/>
      <path style="opacity:1;vector-effect:none;fill:none;fill-opacity:1;stroke:#000000;stroke-width:23.28333282;stroke-linecap:round;stroke-linejoin:round;stroke-miterlimit:4;stroke-dasharray:none;stroke-dashoffset:0;stroke-opacity:1;paint-order:stroke fill markers" d="M -477.60965,-0.84278201 V 30.718599 h 11.78534 V 49.42827 l -78.04227,177.57004 h 104.3373 104.33832 L -413.23322,49.42827 V 30.718599 h 11.78533 V -0.84278201 Z" id="path4528" inkscape:connector-curvature="0" sodipodi:nodetypes="cccccccccccc"/>
    </g>
    <g id="bluegoo-icon" transform="matrix(0.08571612,0,0,0.08571612,-2875.8245,-432.35925)" style="">
      <path id="rect4573" d="m 76.69865,67.299299 c -82.989947,9.147172 -52.971752,29.324499 -204.12975,35.300271 -7.65135,36.02818 2.8995,74.48943 30.167813,101.83922 0.0028,0.003 0.0057,0.005 0.0085,0.009 l 0.0085,0.009 c 20.919847,20.91084 49.26682,32.64848 78.846245,32.64848 29.587527,1e-5 57.943942,-11.74386 78.865449,-32.66542 20.921558,-20.9215 32.667648,-49.27789 32.667671,-78.86545 0,-20.74258 -5.774029,-40.879722 -16.434374,-58.274613 z" style="opacity:1;vector-effect:none;fill:#2345ff;fill-opacity:1;stroke:none;stroke-width:34.32793808;stroke-linecap:round;stroke-linejoin:round;stroke-miterlimit:4;stroke-dasharray:none;stroke-dashoffset:0;stroke-opacity:1;paint-order:normal" inkscape:connector-curvature="0"/>
      <path sodipodi:nodetypes="cccccscscccccc" inkscape:connector-curvature="0" id="path4566" d="m -167.76935,32.320437 22.31727,22.31727 8.33348,-8.33349 17.55555,17.55555 c -29.94649,47.322923 -23.12874,109.075623 16.41995,148.725993 22.476224,22.47629 52.960564,35.10335 84.74678,35.10335 31.78624,1e-5 62.27057,-12.62705 84.74679,-35.10334 22.47629,-22.47622 35.10332,-52.96056 35.10334,-84.7468 0,-31.786213 -12.62706,-62.270553 -35.10335,-84.746773 C 26.70342,3.513367 -35.0724,-3.320153 -82.411326,26.636437 l -17.51974,-17.51975 8.33348,-8.33348 -22.317264,-22.31727 z" style="opacity:1;vector-effect:none;fill:none;fill-opacity:1;stroke:#000000;stroke-width:23.28333282;stroke-linecap:round;stroke-linejoin:round;stroke-miterlimit:4;stroke-dasharray:none;stroke-dashoffset:0;stroke-opacity:1;paint-order:stroke fill markers"/>
    </g>
    <g id="goldcoin-icon" transform="matrix(0.08571612,0,0,0.08571612,-2894.3666,-432.35925)">
      <circle r="137.55496" cy="113.07777" cx="-804.59479" id="path4601" style="opacity:1;vector-effect:none;fill:#ffc843;fill-opacity:1;stroke:#000000;stroke-width:23.28333282;stroke-linecap:round;stroke-linejoin:round;stroke-miterlimit:4;stroke-dasharray:none;stroke-dashoffset:0;stroke-opacity:1;paint-order:normal"/>
      <path id="path4617" d="m -804.59481,18.668901 a 85.991974,85.991974 0 0 0 -85.99215,85.991649 85.991974,85.991974 0 0 0 39.2136,72.06123 v 18.90066 a 11.695339,11.695339 0 1 0 23.38877,0 v -8.29407 a 85.991974,85.991974 0 0 0 0.003,0.001 v 8.29301 a 11.695339,11.695339 0 1 0 23.38824,0 11.695339,11.695339 0 1 0 23.38824,0 11.695339,11.695339 0 1 0 23.38874,0 v -18.82825 a 85.991974,85.991974 0 0 0 39.21355,-72.13358 85.991974,85.991974 0 0 0 -85.99164,-85.991649 z m -35.39112,97.431779 a 15.666348,15.666348 0 0 1 15.66622,15.66623 15.666348,15.666348 0 0 1 -15.66622,15.66622 15.666348,15.666348 0 0 1 -15.66621,-15.66622 15.666348,15.666348 0 0 1 15.66621,-15.66623 z m 70.78224,0 a 15.666348,15.666348 0 0 1 15.66624,15.66623 15.666348,15.666348 0 0 1 -15.66624,15.66622 15.666348,15.666348 0 0 1 -15.66675,-15.66622 15.666348,15.666348 0 0 1 15.66675,-15.66623 z" style="opacity:1;vector-effect:none;fill:#d49000;fill-opacity:1;stroke:none;stroke-width:25.1774292;stroke-linecap:round;stroke-linejoin:round;stroke-miterlimit:4;stroke-dasharray:none;stroke-dashoffset:0;stroke-opacity:1;paint-order:stroke fill markers" inkscape:connector-curvature="0"/>
    </g>
    <g id="blooddrop-icon" transform="matrix(0.08571612,0,0,0.08571612,-2904.0493,-432.35925)">
      <path inkscape:connector-curvature="0" id="path4703" d="m -1185.5103,-41.484416 c -29.1511,63.754795 -89.2811,135.633415 -95.3353,213.787466 -10e-5,52.65224 42.683,95.33534 95.3353,95.33526 52.6522,8e-5 95.3353,-42.68301 95.3353,-95.33526 -6.0542,-78.154051 -66.1842,-150.032671 -95.3353,-213.787466 z" style="opacity:1;vector-effect:none;fill:#d40000;fill-opacity:1;stroke:#000000;stroke-width:23.28333282;stroke-linecap:round;stroke-linejoin:round;stroke-miterlimit:4;stroke-dasharray:none;stroke-dashoffset:0;stroke-opacity:1;paint-order:normal"/>
      <path sodipodi:open="true" d="m -1120.8186,172.32091 a 64.691689,64.691689 0 0 1 -23.4917,49.87559 64.691689,64.691689 0 0 1 -53.4138,13.65264" sodipodi:end="1.7607373" sodipodi:start="0" sodipodi:ry="64.691689" sodipodi:rx="64.691689" sodipodi:cy="172.32091" sodipodi:cx="-1185.5103" sodipodi:type="arc" id="path4744" style="opacity:1;vector-effect:none;fill:none;fill-opacity:1;stroke:#ff8080;stroke-width:23.28333282;stroke-linecap:round;stroke-linejoin:round;stroke-miterlimit:4;stroke-dasharray:none;stroke-dashoffset:0;stroke-opacity:1;paint-order:stroke fill markers"/>
    </g>
    <g id="sword-icon" transform="matrix(0.08571612,0,0,0.08571612,-2915.1155,-432.35927)">
      <path sodipodi:nodetypes="cccccc" inkscape:connector-curvature="0" id="rect4770" d="m -1443.901,-59.651811 68.9585,-2.61372 -2.6137,68.958534 -212.6809,195.840387 -49.5043,-49.50433 z" style="opacity:1;vector-effect:none;fill:#949191;fill-opacity:1;stroke:#000000;stroke-width:23.28333282;stroke-linecap:round;stroke-linejoin:round;stroke-miterlimit:4;stroke-dasharray:none;stroke-dashoffset:0;stroke-opacity:1;paint-order:normal"/>
      <path inkscape:connector-curvature="0" id="rect4787" d="m -1671.1272,121.64333 -0.1378,0.13784 a 26.268526,26.268526 0 0 0 -37.1494,0 26.268526,26.268526 0 0 0 0,37.14943 l -0.1379,0.13784 112.2757,112.27578 0.1379,-0.13784 a 26.268526,26.268526 0 0 0 37.1494,0 26.268526,26.268526 0 0 0 0,-37.14943 l 0.1379,-0.13784 z" style="opacity:1;vector-effect:none;fill:#ffc843;fill-opacity:1;stroke:#000000;stroke-width:23.28333282;stroke-linecap:round;stroke-linejoin:round;stroke-miterlimit:4;stroke-dasharray:none;stroke-dashoffset:0;stroke-opacity:1;paint-order:normal"/>
      <rect transform="rotate(45)" y="1320.6073" x="-1039.7361" height="80.065361" width="46.953075" id="rect4798" style="opacity:1;vector-effect:none;fill:#d49000;fill-opacity:1;stroke:#000000;stroke-width:23.28333282;stroke-linecap:round;stroke-linejoin:round;stroke-miterlimit:4;stroke-dasharray:none;stroke-dashoffset:0;stroke-opacity:1;paint-order:normal"/>
      <path inkscape:connector-curvature="0" id="path4865" d="m -1463.7018,-15.046794 a 11.642831,11.642831 0 0 0 -9.0137,3.873047 l -106.4024,115.552737 a 11.642831,11.642831 0 1 0 17.127,15.77148 L -1455.5886,4.597737 a 11.642831,11.642831 0 0 0 -8.1132,-19.644531 z" style="color:#000000;font-style:normal;font-variant:normal;font-weight:normal;font-stretch:normal;font-size:medium;line-height:normal;font-family:sans-serif;font-variant-ligatures:normal;font-variant-position:normal;font-variant-caps:normal;font-variant-numeric:normal;font-variant-alternates:normal;font-feature-settings:normal;text-indent:0;text-align:start;text-decoration:none;text-decoration-line:none;text-decoration-style:solid;text-decoration-color:#000000;letter-spacing:normal;word-spacing:normal;text-transform:none;writing-mode:lr-tb;direction:ltr;text-orientation:mixed;dominant-baseline:auto;baseline-shift:baseline;text-anchor:start;white-space:normal;shape-padding:0;clip-rule:nonzero;display:inline;overflow:visible;visibility:visible;opacity:1;isolation:auto;mix-blend-mode:normal;color-interpolation:sRGB;color-interpolation-filters:linearRGB;solid-color:#000000;solid-opacity:1;vector-effect:none;fill:#f2f2f2;fill-opacity:1;fill-rule:nonzero;stroke:none;stroke-width:23.28333282;stroke-linecap:round;stroke-linejoin:round;stroke-miterlimit:4;stroke-dasharray:none;stroke-dashoffset:0;stroke-opacity:1;paint-order:stroke fill markers;color-rendering:auto;image-rendering:auto;shape-rendering:auto;text-rendering:auto;enable-background:accumulate"/>
    </g>
    <g id="helmet-icon" transform="matrix(0.08571612,0,0,0.08571612,-2920.7085,-432.35924)">
      <path inkscape:connector-curvature="0" id="path4905" d="m -1978.9067,-21.466613 c -37.2258,0.0018 -72.9277,14.784392 -99.2571,41.10037 -26.3293,26.315977 -41.1306,62.010356 -41.1503,99.236163 l -0.01,0.002 v 0.0662 0.005 0.008 98.15715 l 52.8512,30.51356 V 123.05664 h 61.1341 v 91.89684 h 52.8512 v -91.89684 h 61.1339 v 124.56661 l 52.8512,-30.51356 v -98.16554 -0.0721 -0.002 c -0.019,-37.226016 -14.8212,-72.920646 -41.1507,-99.236763 -26.3293,-26.316128 -62.0313,-41.099634 -99.2574,-41.10037 z" style="opacity:1;vector-effect:none;fill:#949191;fill-opacity:1;stroke:#000000;stroke-width:23.28333282;stroke-linecap:round;stroke-linejoin:round;stroke-miterlimit:4;stroke-dasharray:none;stroke-dashoffset:0;stroke-opacity:1;paint-order:normal"/>
      <path inkscape:connector-curvature="0" id="path4968" d="m -1979.8448,-9.831896 c -45.586,-10e-7 -87.7427,24.388825 -110.4649,63.908203 a 11.642831,11.642831 0 1 0 20.1856,11.605469 c 18.5872,-32.327749 52.9889,-52.230469 90.2793,-52.230469 a 11.642831,11.642831 0 1 0 0,-23.283203 z" style="color:#000000;font-style:normal;font-variant:normal;font-weight:normal;font-stretch:normal;font-size:medium;line-height:normal;font-family:sans-serif;font-variant-ligatures:normal;font-variant-position:normal;font-variant-caps:normal;font-variant-numeric:normal;font-variant-alternates:normal;font-feature-settings:normal;text-indent:0;text-align:start;text-decoration:none;text-decoration-line:none;text-decoration-style:solid;text-decoration-color:#000000;letter-spacing:normal;word-spacing:normal;text-transform:none;writing-mode:lr-tb;direction:ltr;text-orientation:mixed;dominant-baseline:auto;baseline-shift:baseline;text-anchor:start;white-space:normal;shape-padding:0;clip-rule:nonzero;display:inline;overflow:visible;visibility:visible;opacity:1;isolation:auto;mix-blend-mode:normal;color-interpolation:sRGB;color-interpolation-filters:linearRGB;solid-color:#000000;solid-opacity:1;vector-effect:none;fill:#f2f2f2;fill-opacity:1;fill-rule:nonzero;stroke:none;stroke-width:23.28333282;stroke-linecap:round;stroke-linejoin:round;stroke-miterlimit:4;stroke-dasharray:none;stroke-dashoffset:0;stroke-opacity:1;paint-order:stroke fill markers;color-rendering:auto;image-rendering:auto;shape-rendering:auto;text-rendering:auto;enable-background:accumulate"/>
    </g>
    <g id="shield-icon" transform="matrix(0.08571612,0,0,0.08571612,-2928.9401,-429.4687)">
      <path id="path902" transform="matrix(0.26458333,0,0,0.26458333,0,11.250005)" d="m -8983.0254,-370.70898 -543.9629,314.056636 V 247.52148 c -1.282,333.27602 240.425,556.66666 543.9629,638 303.5376,-81.33335 545.2449,-304.72398 543.9629,-638 V -56.652344 Z" style="opacity:1;vector-effect:none;fill:#949191;fill-opacity:1;stroke:#000000;stroke-width:88;stroke-linecap:round;stroke-linejoin:round;stroke-miterlimit:4;stroke-dasharray:none;stroke-dashoffset:0;stroke-opacity:1;paint-order:normal" inkscape:connector-curvature="0"/>
      <path sodipodi:nodetypes="cccc" inkscape:connector-curvature="0" style="opacity:1;vector-effect:none;fill:none;fill-opacity:1;stroke:#f2f2f2;stroke-width:20.29440117;stroke-linecap:round;stroke-linejoin:miter;stroke-miterlimit:4;stroke-dasharray:none;stroke-dashoffset:0;stroke-opacity:1;paint-order:normal" d="M -2384.9007,-57.108043 -2498.9441,7.9855804 V 77.733281 c -0.2744,70.508749 47.4278,119.568369 110.1048,141.384889" id="path1021"/>
    </g>
    <path style="opacity:1;vector-effect:none;fill:#ffc843;fill-opacity:1;stroke:#000000;stroke-width:1.9957571;stroke-linecap:round;stroke-linejoin:round;stroke-miterlimit:4;stroke-dasharray:none;stroke-dashoffset:0;stroke-opacity:1;paint-order:normal" d="m -3186.5117,-430.87459 5.7558,7.48519 5.7559,-7.48519 5.7558,7.48519 5.7559,-7.48519 v 16.4158 h -23.0234 z" id="rect1040" inkscape:connector-curvature="0" sodipodi:nodetypes="cccccccc"/>
    <g id="castle-icon" transform="matrix(0.0841243,0,0,0.0841243,-2957.0353,-432.01706)">
      <path sodipodi:nodetypes="ccccc" inkscape:connector-curvature="0" id="rect1164" d="m -3152.9781,-12.936804 h 117.542 l 17.9188,248.173294 h -153.3795 z" style="opacity:1;vector-effect:none;fill:#949191;fill-opacity:1;stroke:#000000;stroke-width:23.28333282;stroke-linecap:round;stroke-linejoin:round;stroke-miterlimit:4;stroke-dasharray:none;stroke-dashoffset:0;stroke-opacity:1;paint-order:normal"/>
      <path sodipodi:nodetypes="ccccccccccccc" inkscape:connector-curvature="0" id="rect1182" d="m -3192.3797,-73.907901 v 72.5273927 h 196.3452 V -73.907901 h -39.269 v 23.912302 h -39.269 v -23.912302 h -39.2693 v 23.912302 h -39.2689 v -23.912302 z" style="opacity:1;vector-effect:none;fill:#949191;fill-opacity:1;stroke:#000000;stroke-width:23.28333282;stroke-linecap:round;stroke-linejoin:round;stroke-miterlimit:4;stroke-dasharray:none;stroke-dashoffset:0;stroke-opacity:1;paint-order:normal"/>
      <path sodipodi:nodetypes="cccccc" inkscape:connector-curvature="0" id="rect1256" d="m -3094.2067,39.644647 c -13.1639,-9.4e-5 -23.8353,10.671367 -23.8352,23.835239 v 47.601484 h 47.6697 V 63.479886 c 10e-5,-13.163598 -10.6709,-23.834947 -23.8345,-23.835239 z" style="opacity:1;vector-effect:none;fill:#000000;fill-opacity:1;stroke:none;stroke-width:23.28333282;stroke-linecap:round;stroke-linejoin:round;stroke-miterlimit:4;stroke-dasharray:none;stroke-dashoffset:0;stroke-opacity:1;paint-order:normal"/>
    </g>
  </g>
</svg>
