<?xml version="1.0" encoding="UTF-8"?>
<svg width="160" height="160" version="1.1" viewBox="0 0 381 42.333" xmlns="http://www.w3.org/2000/svg" xmlns:cc="http://creativecommons.org/ns#" xmlns:dc="http://purl.org/dc/elements/1.1/" xmlns:rdf="http://www.w3.org/1999/02/22-rdf-syntax-ns#">
<metadata>
<rdf:RDF>
<cc:Work rdf:about="">
<dc:format>image/svg+xml</dc:format>
<dc:type rdf:resource="http://purl.org/dc/dcmitype/StillImage"/>
<dc:title/>
</cc:Work>
</rdf:RDF>
</metadata>
<g transform="translate(3238.5 443.83)">
<g transform="matrix(.085716 0 0 .085716 -2915.1 -432.36)">
<path d="m-1443.9-59.652 68.958-2.6137-2.6137 68.959-212.68 195.84-49.504-49.504z" fill="#949191" stroke="#000" stroke-linecap="round" stroke-linejoin="round" stroke-width="23.283" style="paint-order:normal"/>
<path d="m-1671.1 121.64-0.1378 0.13784a26.269 26.269 0 0 0-37.149 0 26.269 26.269 0 0 0 0 37.149l-0.1379 0.13784 112.28 112.28 0.1379-0.13784a26.269 26.269 0 0 0 37.149 0 26.269 26.269 0 0 0 0-37.149l0.1379-0.13784z" fill="#ffc843" stroke="#000" stroke-linecap="round" stroke-linejoin="round" stroke-width="23.283" style="paint-order:normal"/>
<rect transform="rotate(45)" x="-1039.7" y="1320.6" width="46.953" height="80.065" fill="#d49000" stroke="#000" stroke-linecap="round" stroke-linejoin="round" stroke-width="23.283" style="paint-order:normal"/>
<path d="m-1463.7-15.047a11.643 11.643 0 0 0-9.0137 3.873l-106.4 115.55a11.643 11.643 0 1 0 17.127 15.771l106.4-115.55a11.643 11.643 0 0 0-8.1132-19.645z" color="#000000" color-rendering="auto" dominant-baseline="auto" fill="#f2f2f2" image-rendering="auto" shape-rendering="auto" solid-color="#000000" style="font-feature-settings:normal;font-variant-alternates:normal;font-variant-caps:normal;font-variant-ligatures:normal;font-variant-numeric:normal;font-variant-position:normal;isolation:auto;mix-blend-mode:normal;paint-order:stroke fill markers;shape-padding:0;text-decoration-color:#000000;text-decoration-line:none;text-decoration-style:solid;text-indent:0;text-orientation:mixed;text-transform:none;white-space:normal"/>
</g>
</g>
</svg>
